HIERARCHY
ROOT Hips
{
	OFFSET 0.00000 0.00000 0.00000
	CHANNELS 6 Xposition Yposition Zposition Zrotation Yrotation Xrotation 
	JOINT LHipJoint
	{
		OFFSET 0 0 0
		CHANNELS 3 Zrotation Yrotation Xrotation
		JOINT LeftHip
		{
			OFFSET 1.57358 -1.76629 0.73362
			CHANNELS 3 Zrotation Yrotation Xrotation
			JOINT LeftKnee
			{
				OFFSET 2.40600 -6.61045 0.00000
				CHANNELS 3 Zrotation Yrotation Xrotation
				JOINT LeftAnkle
				{
					OFFSET 2.66168 -7.31291 0.00000
					CHANNELS 3 Zrotation Yrotation Xrotation
					JOINT LeftToe
					{
						OFFSET 0.20870 -0.57341 2.12506
						CHANNELS 3 Zrotation Yrotation Xrotation
						End Site
						{
							OFFSET 0.00000 -0.00000 1.10557
						}
					}
				}
			}
		}
	}
	JOINT RHipJoint
	{
		OFFSET 0 0 0
		CHANNELS 3 Zrotation Yrotation Xrotation
		JOINT RightHip
		{
			OFFSET -1.49299 -1.76629 0.73362
			CHANNELS 3 Zrotation Yrotation Xrotation
			JOINT RightKnee
			{
				OFFSET -2.43663 -6.69460 0.00000
				CHANNELS 3 Zrotation Yrotation Xrotation
				JOINT RightAnkle
				{
					OFFSET -2.62959 -7.22474 0.00000
					CHANNELS 3 Zrotation Yrotation Xrotation
					JOINT RightToe
					{
						OFFSET -0.25784 -0.70841 2.21862
						CHANNELS 3 Zrotation Yrotation Xrotation
						End Site
						{
							OFFSET -0.00000 -0.00000 1.16452
						}
					}
				}
			}
		}
	}
	JOINT lowerback
	{
		OFFSET 0 0 0
		CHANNELS 3 Zrotation Yrotation Xrotation
		JOINT Chest
		{
			OFFSET -0.00034 2.12399 -0.25450
			CHANNELS 3 Zrotation Yrotation Xrotation
			JOINT Chest2
			{
				OFFSET 0.05594 2.14379 -0.03318
				CHANNELS 3 Zrotation Yrotation Xrotation
				JOINT lowerneck
				{
					OFFSET 0 0 0
					CHANNELS 3 Zrotation Yrotation Xrotation
					JOINT Neck
					{
						OFFSET -0.09835 1.62725 0.24211
						CHANNELS 3 Zrotation Yrotation Xrotation
						JOINT Head
						{
							OFFSET 0.10849 1.66041 -0.22648
							CHANNELS 3 Zrotation Yrotation Xrotation
							End Site
							{
								OFFSET 0.04385 1.68267 -0.10541
							}
						}
					}
				}
				JOINT LeftCollar
				{
					OFFSET 0 0 0
					CHANNELS 3 Zrotation Yrotation Xrotation
					JOINT LeftShoulder
					{
						OFFSET 3.29108 0.79398 -0.68179
CHANNELS 3 Zrotation Xrotation Yrotation
						JOINT LeftElbow
						{
OFFSET 0 -5.153100 -0.000000
CHANNELS 3 Zrotation Xrotation Yrotation
							JOINT LeftWrist
							{
OFFSET 0 -3.751380 -0.000000
CHANNELS 3 Zrotation Xrotation Yrotation
								JOINT lhand
								{
									OFFSET 0 0 0
CHANNELS 3 Zrotation Xrotation Yrotation
									JOINT LFingers
									{
OFFSET 0 -0.529170 0.000000
CHANNELS 3 Zrotation Xrotation Yrotation
										End Site
										{
OFFSET 0 -0.426630 0.000000
										}
									}
								}
								JOINT LThumb
								{
OFFSET 0 0.000000 0.000000
CHANNELS 3 Zrotation Xrotation Yrotation
									End Site
									{
OFFSET 0 -0.433150 0.433150
									}
								}
							}
						}
					}
				}
				JOINT RightCollar
				{
					OFFSET 0 0 0
					CHANNELS 3 Zrotation Yrotation Xrotation
					JOINT RightShoulder
					{
						OFFSET -3.07414 1.06285 -0.44338
CHANNELS 3 Zrotation Xrotation Yrotation
						JOINT RightElbow
						{
OFFSET 0 -5.296130 0.000000
CHANNELS 3 Zrotation Xrotation Yrotation
							JOINT RightWrist
							{
OFFSET 0 -3.761440 -0.000000
CHANNELS 3 Zrotation Xrotation Yrotation
								JOINT rhand
								{
									OFFSET 0 0 0
CHANNELS 3 Zrotation Xrotation Yrotation
									JOINT RFingers
									{
OFFSET 0 -0.747320 0.000000
CHANNELS 3 Zrotation Xrotation Yrotation
										End Site
										{
OFFSET 0 -0.602510 0.000000
										}
									}
								}
								JOINT RThumb
								{
OFFSET 0 0.000000 0.000000
CHANNELS 3 Zrotation Xrotation Yrotation
									End Site
									{
OFFSET 0 -0.611710 0.611710
									}
								}
							}
						}
					}
				}
			}
		}
	}
}
MOTION
Frames: 6
Frame Time: 0.008333333333333333
-1.160418 16.140981 23.111246 -0.828841 6.347878 -10.302106 0.000000 0.000000 0.000000 -19.956983 -9.025543 -2.649185 14.714521 19.316498 74.375120 0.540296 -4.605419 -13.087530 1.042900 -6.494044 -18.225073 0.000000 0.000000 0.000000 18.381848 10.524788 -26.015090 -5.165828 -13.568097 41.534075 0.002701 -1.165455 -1.171724 -0.002071 0.259797 -0.713833 -2.155823 -2.665051 12.885538 3.604729 -3.605345 -0.138930 5.729693 -1.620389 -7.011305 -10.216005 -2.809512 -20.310039 5.724047 -2.119331 21.301489 3.431604 -1.125475 10.354080 0.000000 0.000000 0.000000 -2.589244 0.535074 -23.627057 86.221815 -59.914078 56.730029 28.012846 -8.873940 -11.469343 0.000000 0.000000 0.000000 -7.125000 0.000000 0.000000 0.784619 42.922212 0.037955 0.000000 0.000000 0.000000 -8.980757 20.434940 18.152547 -45.447030 -50.976201 -22.588309 -28.415793 -8.980953 -26.040684 0.000000 0.000000 0.000000 7.125000 0.000000 0.000000 0.856424 0.926584 0.840707
-1.161054 16.170344 23.180739 -0.638123 6.503035 -10.199317 0.000000 0.000000 0.000000 -20.295348 -9.381629 -3.111755 14.761764 19.328895 74.517960 0.547487 -4.230857 -13.185789 1.019100 -6.421531 -18.012820 0.000000 0.000000 0.000000 18.218943 10.415165 -25.744469 -5.139684 -13.539290 41.422426 0.002304 -1.226366 -1.366773 -0.004614 0.403392 -1.108500 -2.273870 -2.655754 12.808814 3.530786 -3.615636 -0.147989 5.713879 -1.623766 -6.974115 -10.208615 -2.871337 -20.143717 5.668342 -2.211194 21.233268 3.394811 -1.174624 10.306440 0.000000 0.000000 0.000000 -2.718932 0.531021 -23.502971 83.349445 -59.783635 54.246286 27.761138 -8.540819 -11.081630 0.000000 0.000000 0.000000 -7.125000 0.000000 0.000000 0.588656 42.460635 0.033465 0.000000 0.000000 0.000000 -8.755670 19.839821 17.567440 -44.450489 -50.482004 -21.818127 -27.834779 -8.108260 -25.860853 0.000000 0.000000 0.000000 7.125000 0.000000 0.000000 1.176473 1.252751 1.147922
-1.161689 16.199707 23.250232 -0.447405 6.658192 -10.096528 0.000000 0.000000 0.000000 -20.633713 -9.737715 -3.574326 14.809006 19.341292 74.660799 0.554679 -3.856295 -13.284049 0.995300 -6.349019 -17.800567 0.000000 0.000000 0.000000 18.056038 10.305542 -25.473848 -5.113539 -13.510484 41.310776 0.001907 -1.287276 -1.561822 -0.007157 0.546987 -1.503167 -2.391916 -2.646456 12.732089 3.456843 -3.625927 -0.157048 5.698066 -1.627143 -6.936925 -10.201224 -2.933161 -19.977395 5.612636 -2.303056 21.165047 3.358018 -1.223774 10.258801 0.000000 0.000000 0.000000 -2.848620 0.526968 -23.378885 80.477075 -59.653192 51.762544 27.509430 -8.207699 -10.693916 0.000000 0.000000 0.000000 -7.125000 0.000000 0.000000 0.392693 41.999058 0.028975 0.000000 0.000000 0.000000 -8.530583 19.244702 16.982334 -43.453949 -49.987806 -21.047944 -27.253765 -7.235567 -25.681022 0.000000 0.000000 0.000000 7.125000 0.000000 0.000000 1.496521 1.578918 1.455137
-1.164122 16.228561 23.313435 -0.581319 6.767096 -10.024444 0.000000 0.000000 0.000000 -20.517868 -10.039696 -4.097838 14.842263 19.349821 74.761097 0.561558 -3.551816 -13.396098 1.017323 -6.416242 -17.997287 0.000000 0.000000 0.000000 18.268627 10.276433 -25.139200 -5.061651 -13.452535 41.087635 0.002955 -1.463937 -1.719524 -0.009114 0.612764 -1.683913 -2.197793 -2.670403 12.739004 3.478727 -3.626530 -0.183413 5.613263 -1.631966 -6.979545 -10.164340 -2.981938 -19.917057 5.518256 -2.365503 21.147649 3.308061 -1.261204 10.245616 0.000000 0.000000 0.000000 -2.987020 0.561434 -23.297849 77.981723 -59.408796 49.615191 27.757795 -7.519711 -10.850106 0.000000 0.000000 0.000000 -7.125000 0.000000 0.000000 0.604492 42.200572 0.040034 0.000000 0.000000 0.000000 -8.314090 18.640754 16.355779 -42.507607 -49.473451 -20.329797 -26.847645 -6.319238 -25.507207 0.000000 0.000000 0.000000 7.125000 0.000000 0.000000 1.716367 1.852660 1.659141
-1.166585 16.257407 23.376531 -0.720781 6.875209 -9.952885 0.000000 0.000000 0.000000 -20.394259 -10.340752 -4.622391 14.875281 19.358284 74.860668 0.568432 -3.248535 -13.508383 1.040130 -6.485854 -18.200997 0.000000 0.000000 0.000000 18.487635 10.248699 -24.803457 -5.009323 -13.394088 40.862588 0.004028 -1.642576 -1.876588 -0.011061 0.677210 -1.861003 -1.998334 -2.694918 12.747348 3.502248 -3.626967 -0.210073 5.527281 -1.636813 -7.023529 -10.126951 -3.030491 -19.858531 5.423215 -2.427446 21.131120 3.257878 -1.298434 10.233021 0.000000 0.000000 0.000000 -3.125569 0.596557 -23.217549 75.492815 -59.162452 47.473588 28.014708 -6.825657 -11.015594 0.000000 0.000000 0.000000 -7.125000 0.000000 0.000000 0.823262 42.413421 0.051357 0.000000 0.000000 0.000000 -8.097745 18.036655 15.728516 -41.562123 -48.958751 -19.612539 -26.444516 -5.402163 -25.333495 0.000000 0.000000 0.000000 7.125000 0.000000 0.000000 1.934501 2.125506 1.861382
-1.169345 16.287847 23.440739 -0.972652 6.935290 -9.922094 0.000000 0.000000 0.000000 -20.120754 -10.577247 -5.119204 14.894364 19.363171 74.918247 0.576177 -2.999308 -13.629915 1.059731 -6.545089 -18.374558 0.000000 0.000000 0.000000 18.849478 10.260436 -24.408712 -4.950398 -13.327395 40.607373 0.005879 -1.853255 -2.032374 -0.011859 0.703854 -1.934208 -1.692712 -2.713170 12.774723 3.558088 -3.600275 -0.229007 5.412039 -1.631506 -7.076983 -10.107982 -3.070798 -19.834824 5.367219 -2.479235 21.166978 3.227394 -1.328344 10.245517 0.000000 0.000000 0.000000 -3.258021 0.642967 -23.135118 73.065485 -58.864370 45.392507 28.224812 -6.135661 -11.218606 0.000000 0.000000 0.000000 -7.125000 0.000000 0.000000 0.997427 42.664184 0.056677 0.000000 0.000000 0.000000 -7.890572 17.499045 15.121804 -40.707589 -48.477592 -18.969163 -26.119938 -4.597738 -25.132339 0.000000 0.000000 0.000000 7.125000 0.000000 0.000000 2.102675 2.409285 2.013200
